# xmcd
#
# Track frame offsets: 
#        150
#        16105
#        32784
#        49822
#        64829
#        81339
#        101585
#        115818
#        129977
#        143060
#        160448
#        183232
#        190839
#        217805
#        229732
#        246010
#
# Disc length: 3358 seconds
#
# Revision: 0
# Processed by: cddbd v1.5.2PL0 Copyright (c) Steve Scherf et al.
# Submitted via: ExactAudioCopy v0.99pb5
#
DISCID=d30d1c10
DTITLE=Hank Williams - Hank Williams Revealed [CD3]
DYEAR=2009
DGENRE=country
TTITLE0=Everything's Okay
TTITLE1=I've Just Told Mama Goodbye
TTITLE2=Where The Old Red River Flows
TTITLE3=Alabama Waltz
TTITLE4=Faded Love And Winter Roses
TTITLE5=Deck Of Cards
TTITLE6=Just Waitin'
TTITLE7=I Hang My Head And Cry
TTITLE8=Jerry Rivers, Hank Williams and The Drifting Cowboys - Orange Bl
TTITLE8=ossom Special
TTITLE9=I've Been Down That Road Before
TTITLE10=Steal Away - The Funeral
TTITLE11=Lovesick Blues
TTITLE12=I Dreamed About Mom Last Night
TTITLE13=Jerry Rivers and The Drifting Cowboys - Black Mountain Rag
TTITLE14=I Heard My Saviour Calling Me
TTITLE15=Closing Theme
EXTD=
EXTT0=
EXTT1=
EXTT2=
EXTT3=
EXTT4=
EXTT5=
EXTT6=
EXTT7=
EXTT8=
EXTT9=
EXTT10=
EXTT11=
EXTT12=
EXTT13=
EXTT14=
EXTT15=
PLAYORDER=
